<svg width="1200" height="620" viewBox="0 0 1200 620" xmlns="http://www.w3.org/2000/svg">
<defs>
  <linearGradient id="bg" x1="0" y1="0" x2="1" y2="1"><stop offset="0" stop-color="#0b1220"/><stop offset="1" stop-color="#15102b"/></linearGradient>
  <linearGradient id="blue" x1="0" y1="0" x2="1" y2="0"><stop stop-color="#2563eb"/><stop offset="1" stop-color="#06b6d4"/></linearGradient>
  <linearGradient id="purple" x1="0" y1="0" x2="1" y2="0"><stop stop-color="#7c3aed"/><stop offset="1" stop-color="#c026d3"/></linearGradient>
  <filter id="shadow"><feDropShadow dx="0" dy="6" stdDeviation="8" flood-opacity=".25"/></filter>
</defs>
<rect width="1200" height="620" rx="24" fill="url(#bg)"/>
<text x="48" y="62" fill="#f8fafc" font-family="Arial,sans-serif" font-size="30" font-weight="700">DATA ANALYTICS DASHBOARD</text>
<text x="48" y="91" fill="#94a3b8" font-family="Arial,sans-serif" font-size="15">Sunanda Rout • Data Analyst Portfolio • GitHub Overview</text>
<rect x="1000" y="35" width="150" height="42" rx="21" fill="#111827" stroke="#334155"/>
<circle cx="1024" cy="56" r="7" fill="#22c55e"/><text x="1040" y="62" fill="#e2e8f0" font-family="Arial,sans-serif" font-size="14">ACTIVE PROFILE</text>

<!-- KPI cards -->
<g filter="url(#shadow)">
<rect x="48" y="120" width="250" height="105" rx="14" fill="#111827" stroke="#243244"/>
<rect x="315" y="120" width="250" height="105" rx="14" fill="#111827" stroke="#243244"/>
<rect x="582" y="120" width="250" height="105" rx="14" fill="#111827" stroke="#243244"/>
<rect x="849" y="120" width="301" height="105" rx="14" fill="#111827" stroke="#243244"/>
</g>
<text x="70" y="151" fill="#60a5fa" font-family="Arial,sans-serif" font-size="14">PRIMARY ROLE</text>
<text x="70" y="190" fill="#f8fafc" font-family="Arial,sans-serif" font-size="25" font-weight="700">Data Analyst</text>
<text x="337" y="151" fill="#a78bfa" font-family="Arial,sans-serif" font-size="14">CORE LANGUAGE</text>
<text x="337" y="190" fill="#f8fafc" font-family="Arial,sans-serif" font-size="25" font-weight="700">Python + SQL</text>
<text x="604" y="151" fill="#22d3ee" font-family="Arial,sans-serif" font-size="14">BI & VISUALIZATION</text>
<text x="604" y="190" fill="#f8fafc" font-family="Arial,sans-serif" font-size="25" font-weight="700">Power BI</text>
<text x="871" y="151" fill="#34d399" font-family="Arial,sans-serif" font-size="14">DATA STACK</text>
<text x="871" y="190" fill="#f8fafc" font-family="Arial,sans-serif" font-size="22" font-weight="700">PostgreSQL • BigQuery</text>

<!-- left chart -->
<rect x="48" y="248" width="570" height="315" rx="16" fill="#111827" stroke="#243244"/>
<text x="72" y="284" fill="#f8fafc" font-family="Arial,sans-serif" font-size="18" font-weight="700">Analytics Skill Coverage</text>
<text x="72" y="309" fill="#64748b" font-family="Arial,sans-serif" font-size="12">Professional data analytics toolkit</text>
<g font-family="Arial,sans-serif" font-size="13" fill="#cbd5e1">
<text x="72" y="349">Python / Pandas</text><text x="72" y="395">SQL / PostgreSQL</text><text x="72" y="441">Power BI</text><text x="72" y="487">Excel</text><text x="72" y="533">Statistics / EDA</text>
</g>
<g fill="#1e293b"><rect x="210" y="334" width="360" height="16" rx="8"/><rect x="210" y="380" width="360" height="16" rx="8"/><rect x="210" y="426" width="360" height="16" rx="8"/><rect x="210" y="472" width="360" height="16" rx="8"/><rect x="210" y="518" width="360" height="16" rx="8"/></g>
<g fill="url(#blue)"><rect x="210" y="334" width="324" height="16" rx="8"/><rect x="210" y="380" width="342" height="16" rx="8"/><rect x="210" y="426" width="306" height="16" rx="8"/><rect x="210" y="472" width="288" height="16" rx="8"/><rect x="210" y="518" width="270" height="16" rx="8"/></g>
<g fill="#e2e8f0" font-family="Arial,sans-serif" font-size="12"><text x="540" y="347">90%</text><text x="558" y="393">95%</text><text x="522" y="439">85%</text><text x="504" y="485">80%</text><text x="486" y="531">75%</text></g>

<!-- right panels -->
<rect x="638" y="248" width="512" height="145" rx="16" fill="#111827" stroke="#243244"/>
<text x="662" y="284" fill="#f8fafc" font-family="Arial,sans-serif" font-size="18" font-weight="700">Technology Stack</text>
<g font-family="Arial,sans-serif" font-size="13" fill="#cbd5e1">
<rect x="662" y="307" width="92" height="32" rx="16" fill="#172554"/><text x="684" y="328">Python</text>
<rect x="764" y="307" width="82" height="32" rx="16" fill="#172554"/><text x="786" y="328">SQL</text>
<rect x="856" y="307" width="98" height="32" rx="16" fill="#312e81"/><text x="878" y="328">Power BI</text>
<rect x="964" y="307" width="80" height="32" rx="16" fill="#312e81"/><text x="986" y="328">Excel</text>
<rect x="1054" y="307" width="72" height="32" rx="16" fill="#164e63"/><text x="1068" y="328">EDA</text>
<rect x="662" y="350" width="112" height="32" rx="16" fill="#164e63"/><text x="684" y="371">PostgreSQL</text>
<rect x="784" y="350" width="96" height="32" rx="16" fill="#164e63"/><text x="806" y="371">BigQuery</text>
<rect x="890" y="350" width="98" height="32" rx="16" fill="#164e63"/><text x="912" y="371">Snowflake</text>
<rect x="998" y="350" width="76" height="32" rx="16" fill="#1e293b"/><text x="1017" y="371">Git</text>
</g>

<rect x="638" y="416" width="512" height="147" rx="16" fill="#111827" stroke="#243244"/>
<text x="662" y="452" fill="#f8fafc" font-family="Arial,sans-serif" font-size="18" font-weight="700">Current Focus</text>
<polyline points="670,528 735,512 800,518 865,486 930,495 995,462 1060,472 1120,442" fill="none" stroke="url(#purple)" stroke-width="4" stroke-linecap="round"/>
<line x1="670" y1="535" x2="1120" y2="535" stroke="#334155"/>
<g fill="#94a3b8" font-family="Arial,sans-serif" font-size="11"><text x="670" y="552">SQL</text><text x="735" y="552">Python</text><text x="800" y="552">EDA</text><text x="865" y="552">Power BI</text><text x="930" y="552">Stats</text><text x="995" y="552">BI</text><text x="1060" y="552">Cloud</text></g>
</svg>